<svg xmlns="http://www.w3.org/2000/svg" width="22" height="22" viewBox="0 0 22 22">
  <defs>
    <style>
      .cls-1, .cls-2 {
        fill: #fff;
      }

      .cls-1 {
        opacity: 0;
      }

      .cls-2 {
        stroke: #fff;
        stroke-width: 0.6px;
      }
    </style>
  </defs>
  <g id="icon_interview_service" transform="translate(-1299 -1040)">
    <rect id="矩形_1" data-name="矩形 1" class="cls-1" width="22" height="22" transform="translate(1299 1040)"/>
    <g id="编组" transform="translate(1301 1043)">
      <path id="形状" class="cls-2" d="M8.858,15.867h0a1.267,1.267,0,0,1-.95-.427L6.293,13.6h-3.5A2.767,2.767,0,0,1,0,10.864V2.736A2.694,2.694,0,0,1,.818.8,2.838,2.838,0,0,1,2.792,0H14.209A2.767,2.767,0,0,1,17,2.736v8.125A2.767,2.767,0,0,1,14.209,13.6H11.165L9.947,15.349a1.277,1.277,0,0,1-1.015.518H8.858ZM2.787,1.029A2.033,2.033,0,0,0,1.115,2.772v8a2.3,2.3,0,0,0,.54,1.244,2.307,2.307,0,0,0,1.263.5H6.841l.323.3,1.707,1.994,1.6-2.293H14.2c.589,0,1.685-.762,1.685-1.482l0-8.264a1.679,1.679,0,0,0-.468-1.22,2.007,2.007,0,0,0-1.271-.523Z" transform="translate(0 0)"/>
      <path id="形状-2" data-name="形状" class="cls-2" d="M.955,2A.979.979,0,0,1,0,1,.979.979,0,0,1,.955,0,.979.979,0,0,1,1.91,1,.979.979,0,0,1,.955,2ZM8.379,2A.929.929,0,0,1,7.9,1.865,1.009,1.009,0,0,1,7.425,1,.955.955,0,1,1,9.333,1a1.006,1.006,0,0,1-.476.865A.926.926,0,0,1,8.379,2ZM4.668,2a.926.926,0,0,1-.477-.134A1.01,1.01,0,0,1,3.713,1a.979.979,0,0,1,.954-1,.979.979,0,0,1,.955,1,1.007,1.007,0,0,1-.476.865A.929.929,0,0,1,4.668,2Z" transform="translate(3.966 5.547)"/>
    </g>
  </g>
</svg>
