<svg xmlns="http://www.w3.org/2000/svg" width="22" height="22" viewBox="0 0 22 22">
  <defs>
    <style>
      .cls-1, .cls-2 {
        fill: #fff;
      }

      .cls-1 {
        stroke: #fff;
        stroke-width: 0.3px;
      }

      .cls-2 {
        opacity: 0;
      }
    </style>
  </defs>
  <g id="组_28" data-name="组 28" transform="translate(-1198 -1040)">
    <g id="组_27" data-name="组 27" transform="translate(1123.5 941.6)">
      <path id="路径_2" data-name="路径 2" class="cls-1" d="M88.559,118.005a1.34,1.34,0,0,1-.982-.419,3.314,3.314,0,0,0-1.812-1.074,3.273,3.273,0,0,0-1.8,1.054,1.335,1.335,0,0,1-.973.413,1.228,1.228,0,0,1-.5-.1l-.034-.017L80.2,116.6l-.028-.019a1.235,1.235,0,0,1-.415-1.493,2.523,2.523,0,0,0,.195-.847,2.229,2.229,0,0,0-2.227-2.227h-.094c-.453,0-.819-.383-.933-.977a8.648,8.648,0,0,1,0-3.649c.113-.595.479-.977.933-.977h.094a2.229,2.229,0,0,0,2.227-2.227,2.472,2.472,0,0,0-.195-.849,1.232,1.232,0,0,1,.419-1.491l.032-.021,2.383-1.309.032-.013a1.268,1.268,0,0,1,.5-.1,1.363,1.363,0,0,1,.975.4,3.287,3.287,0,0,0,1.773,1.01,3.287,3.287,0,0,0,1.762-.99,1.355,1.355,0,0,1,.967-.4,1.246,1.246,0,0,1,.5.1l.032.015,2.3,1.279.03.021a1.235,1.235,0,0,1,.415,1.493,2.539,2.539,0,0,0-.195.847,2.229,2.229,0,0,0,2.227,2.227H94c.453,0,.821.383.933.977a8.648,8.648,0,0,1,0,3.649c-.111.592-.479.977-.935.977h-.094a2.229,2.229,0,0,0-2.227,2.227,2.612,2.612,0,0,0,.195.851,1.237,1.237,0,0,1-.417,1.491l-.032.021-2.34,1.288-.032.013A1.194,1.194,0,0,1,88.559,118.005Zm-2.793-2.881a3.436,3.436,0,0,1,2.006.787,6.467,6.467,0,0,1,.783.687l1.989-1.1a3.811,3.811,0,0,1-.252-1.262,3.613,3.613,0,0,1,3.3-3.6,7.07,7.07,0,0,0,0-2.853,3.613,3.613,0,0,1-3.3-3.6,3.838,3.838,0,0,1,.252-1.264l-1.964-1.091a6.276,6.276,0,0,1-.776.646,2.96,2.96,0,0,1-3.9-.015,6.163,6.163,0,0,1-.781-.659l-2.038,1.119a3.811,3.811,0,0,1,.252,1.262,3.613,3.613,0,0,1-3.3,3.6,7.07,7.07,0,0,0,0,2.853,3.613,3.613,0,0,1,3.3,3.6,3.763,3.763,0,0,1-.255,1.264l1.912,1.069a6.658,6.658,0,0,1,.779-.676A3.49,3.49,0,0,1,85.766,115.124Z"/>
      <path id="路径_3" data-name="路径 3" class="cls-1" d="M359.826,363.152a3.326,3.326,0,1,1,3.326-3.326A3.33,3.33,0,0,1,359.826,363.152Zm0-5.264a1.938,1.938,0,1,0,1.938,1.938A1.939,1.939,0,0,0,359.826,357.888Z" transform="translate(-274.011 -250.622)"/>
    </g>
    <rect id="矩形_1" data-name="矩形 1" class="cls-2" width="22" height="22" transform="translate(1198 1040)"/>
  </g>
</svg>
