<svg xmlns="http://www.w3.org/2000/svg" width="13.957" height="14" viewBox="0 0 13.957 14">
  <path id="最小化" d="M23.821,17.408a.708.708,0,0,1,.7.7V22.2a.732.732,0,0,1-.8.8h-4.08a.7.7,0,1,1,0-1.406h2.507l-3.007-3.014a.678.678,0,0,1,0-.964.691.691,0,0,1,.964,0l3.007,3.014V18.111A.7.7,0,0,1,23.821,17.408Zm4.906.7v2.514l3.007-3.014a.691.691,0,0,1,.964,0,.678.678,0,0,1,0,.964L29.69,21.582H32.2a.7.7,0,1,1,0,1.406h-4.08a.732.732,0,0,1-.8-.8v-4.08a.7.7,0,1,1,1.406,0ZM23.118,30.705V28.191l-3.007,3.014a.691.691,0,0,1-.964,0,.678.678,0,0,1,0-.964l3.007-3.014H19.647a.7.7,0,1,1,0-1.406h4.08a.732.732,0,0,1,.8.8v4.087a.7.7,0,1,1-1.406,0Zm4.906.7a.7.7,0,0,1-.7-.7V26.618a.732.732,0,0,1,.8-.8H32.2a.7.7,0,1,1,0,1.406H29.69L32.7,30.241a.678.678,0,0,1,0,.964.691.691,0,0,1-.964,0l-3.007-3.014v2.514A.7.7,0,0,1,28.024,31.408Z" transform="translate(-18.944 -17.408)" fill="#fff"/>
</svg>
