<?xml version="1.0" encoding="UTF-8" standalone="no"?>
<!-- Created with Inkscape (http://www.inkscape.org/) -->
<svg
   xmlns:svg="http://www.w3.org/2000/svg"
   xmlns="http://www.w3.org/2000/svg"
   xmlns:xlink="http://www.w3.org/1999/xlink"
   version="1.0"
   width="180"
   height="100"
   id="svg2">
  <defs
     id="defs4">
    <linearGradient
       id="linearGradient3317">
      <stop
         id="stop3319"
         style="stop-color:#fff818;stop-opacity:1"
         offset="0" />
      <stop
         id="stop3321"
         style="stop-color:#fff818;stop-opacity:0"
         offset="1" />
    </linearGradient>
    <linearGradient
       id="linearGradient14915">
      <stop
         id="stop14917"
         style="stop-color:#cc4f00;stop-opacity:1"
         offset="0" />
      <stop
         id="stop14919"
         style="stop-color:#984815;stop-opacity:1"
         offset="1" />
    </linearGradient>
    <linearGradient
       id="linearGradient14905">
      <stop
         id="stop14907"
         style="stop-color:#c3c3c3;stop-opacity:1"
         offset="0" />
      <stop
         id="stop14913"
         style="stop-color:#000000;stop-opacity:1"
         offset="0.55555558" />
      <stop
         id="stop14909"
         style="stop-color:#000000;stop-opacity:1"
         offset="1" />
    </linearGradient>
    <linearGradient
       id="linearGradient14891">
      <stop
         id="stop14893"
         style="stop-color:#ffffff;stop-opacity:1"
         offset="0" />
      <stop
         id="stop14895"
         style="stop-color:#e2e2e2;stop-opacity:1"
         offset="1" />
    </linearGradient>
    <linearGradient
       id="linearGradient6420">
      <stop
         id="stop6422"
         style="stop-color:#9bd9ff;stop-opacity:1"
         offset="0" />
      <stop
         id="stop6424"
         style="stop-color:#1da5ff;stop-opacity:1"
         offset="1" />
    </linearGradient>
    <linearGradient
       x1="97.191101"
       y1="72.271553"
       x2="105.49163"
       y2="87.081856"
       id="linearGradient14975"
       xlink:href="#linearGradient14915"
       gradientUnits="userSpaceOnUse"
       gradientTransform="translate(222.18,419.715)" />
    <linearGradient
       x1="112.13223"
       y1="65.066559"
       x2="113.08676"
       y2="65.581429"
       id="linearGradient14977"
       xlink:href="#linearGradient14891"
       gradientUnits="userSpaceOnUse" />
    <linearGradient
       x1="345.88135"
       y1="505.42252"
       x2="376.26169"
       y2="505.42252"
       id="linearGradient14991"
       xlink:href="#linearGradient6420"
       gradientUnits="userSpaceOnUse"
       gradientTransform="translate(0.772106,0.855522)" />
    <linearGradient
       x1="251.5558"
       y1="494.82321"
       x2="291.55579"
       y2="534.82318"
       id="linearGradient15001"
       xlink:href="#linearGradient6420"
       gradientUnits="userSpaceOnUse"
       gradientTransform="translate(2.02214,3.45985)" />
    <linearGradient
       x1="-236.55583"
       y1="494.82321"
       x2="-196.55582"
       y2="534.82318"
       id="linearGradient15005"
       xlink:href="#linearGradient6420"
       gradientUnits="userSpaceOnUse"
       gradientTransform="translate(435.134,3.45985)" />
    <linearGradient
       x1="-236.55583"
       y1="494.82321"
       x2="-196.55582"
       y2="534.82318"
       id="linearGradient15443"
       xlink:href="#linearGradient6420"
       gradientUnits="userSpaceOnUse"
       gradientTransform="translate(435.134,3.45985)" />
    <linearGradient
       x1="251.5558"
       y1="494.82321"
       x2="291.55579"
       y2="534.82318"
       id="linearGradient15445"
       xlink:href="#linearGradient6420"
       gradientUnits="userSpaceOnUse"
       gradientTransform="translate(2.02214,3.45985)" />
    <linearGradient
       x1="345.88135"
       y1="505.42252"
       x2="376.26169"
       y2="505.42252"
       id="linearGradient15447"
       xlink:href="#linearGradient6420"
       gradientUnits="userSpaceOnUse"
       gradientTransform="translate(0.772106,0.855522)" />
    <linearGradient
       x1="97.191101"
       y1="72.271553"
       x2="105.49163"
       y2="87.081856"
       id="linearGradient15449"
       xlink:href="#linearGradient14915"
       gradientUnits="userSpaceOnUse"
       gradientTransform="translate(222.18,419.715)" />
    <linearGradient
       x1="112.13223"
       y1="65.066559"
       x2="113.08676"
       y2="65.581429"
       id="linearGradient15451"
       xlink:href="#linearGradient14891"
       gradientUnits="userSpaceOnUse" />
    <linearGradient
       x1="345.88135"
       y1="505.42252"
       x2="376.26169"
       y2="505.42252"
       id="linearGradient1342"
       xlink:href="#linearGradient6420"
       gradientUnits="userSpaceOnUse"
       gradientTransform="translate(1.5442,2.85288)" />
    <linearGradient
       x1="251.5558"
       y1="494.82321"
       x2="291.55579"
       y2="534.82318"
       id="linearGradient1351"
       xlink:href="#linearGradient6420"
       gradientUnits="userSpaceOnUse"
       gradientTransform="translate(2.79424,5.4572)" />
    <linearGradient
       x1="-236.55583"
       y1="494.82321"
       x2="-196.55582"
       y2="534.82318"
       id="linearGradient1355"
       xlink:href="#linearGradient6420"
       gradientUnits="userSpaceOnUse"
       gradientTransform="translate(435.906,5.4572)" />
    <linearGradient
       x1="97.191101"
       y1="72.271553"
       x2="105.49163"
       y2="87.081856"
       id="linearGradient1364"
       xlink:href="#linearGradient14915"
       gradientUnits="userSpaceOnUse"
       gradientTransform="translate(420.758,877.99)" />
    <linearGradient
       x1="97.191101"
       y1="72.271553"
       x2="105.49163"
       y2="87.081856"
       id="linearGradient1374"
       xlink:href="#linearGradient14915"
       gradientUnits="userSpaceOnUse"
       gradientTransform="translate(420.758,877.99)" />
    <linearGradient
       x1="112.13223"
       y1="65.066559"
       x2="113.08676"
       y2="65.581429"
       id="linearGradient1376"
       xlink:href="#linearGradient14891"
       gradientUnits="userSpaceOnUse" />
    <linearGradient
       x1="345.88135"
       y1="505.42252"
       x2="376.26169"
       y2="505.42252"
       id="linearGradient1472"
       xlink:href="#linearGradient6420"
       gradientUnits="userSpaceOnUse"
       gradientTransform="translate(1.5442,2.85288)" />
    <linearGradient
       x1="251.5558"
       y1="494.82321"
       x2="291.55579"
       y2="534.82318"
       id="linearGradient1481"
       xlink:href="#linearGradient6420"
       gradientUnits="userSpaceOnUse"
       gradientTransform="translate(2.79424,5.4572)" />
    <linearGradient
       x1="-236.55583"
       y1="494.82321"
       x2="-196.55582"
       y2="534.82318"
       id="linearGradient1485"
       xlink:href="#linearGradient6420"
       gradientUnits="userSpaceOnUse"
       gradientTransform="translate(435.906,5.4572)" />
    <linearGradient
       x1="345.88135"
       y1="505.42252"
       x2="376.26169"
       y2="505.42252"
       id="linearGradient1546"
       xlink:href="#linearGradient6420"
       gradientUnits="userSpaceOnUse"
       gradientTransform="translate(1.5442,2.85288)" />
    <linearGradient
       x1="97.191101"
       y1="72.271553"
       x2="105.49163"
       y2="87.081856"
       id="linearGradient1548"
       xlink:href="#linearGradient14915"
       gradientUnits="userSpaceOnUse"
       gradientTransform="translate(420.758,877.99)" />
    <linearGradient
       x1="112.13223"
       y1="65.066559"
       x2="113.08676"
       y2="65.581429"
       id="linearGradient1550"
       xlink:href="#linearGradient14891"
       gradientUnits="userSpaceOnUse" />
    <linearGradient
       x1="211.86386"
       y1="504.76184"
       x2="228.43027"
       y2="504.76184"
       id="linearGradient3323"
       xlink:href="#linearGradient3317"
       gradientUnits="userSpaceOnUse" />
    <linearGradient
       x1="211.86386"
       y1="504.76184"
       x2="228.43027"
       y2="504.76184"
       id="linearGradient4777"
       xlink:href="#linearGradient14891"
       gradientUnits="userSpaceOnUse" />
  </defs>
  <g
     transform="translate(-198.578,-458.275)"
     id="layer1">
    <rect
       width="38.088432"
       height="78.088425"
       x="200.30589"
       y="461.23618"
       id="rect1933"
       style="fill:url(#linearGradient1485);fill-opacity:1;fill-rule:nonzero;stroke:#000000;stroke-width:1.91157269;stroke-miterlimit:4;stroke-opacity:1" />
    <rect
       width="38.088432"
       height="78.088425"
       x="255.30582"
       y="461.23618"
       id="rect2828"
       style="fill:url(#linearGradient1481);fill-opacity:1;fill-rule:nonzero;stroke:#000000;stroke-width:1.91157269;stroke-miterlimit:4;stroke-opacity:1" />
    <path
       d="M 238.54002,466.09964 A 3.9163287,4.0350051 0 1 1 230.70736,466.09964 A 3.9163287,4.0350051 0 1 1 238.54002,466.09964 z"
       transform="matrix(0.638353,0,0,0.619578,56.163,211.495)"
       id="path2822"
       style="fill:#000000;fill-opacity:1;fill-rule:nonzero;stroke:none;stroke-width:2;stroke-miterlimit:4;stroke-dasharray:none;stroke-opacity:1" />
    <text
       x="219.82089"
       y="482.72638"
       id="text2824"
       xml:space="preserve"
       style="font-size:12.52173901px;font-style:normal;font-variant:normal;font-weight:normal;font-stretch:normal;line-height:100%;writing-mode:lr-tb;text-anchor:middle;fill:#000000;fill-opacity:1;stroke:none;stroke-width:1px;stroke-linecap:butt;stroke-linejoin:miter;stroke-opacity:1;font-family:Arial"><tspan
         x="219.82089"
         y="482.72638"
         id="tspan2826"
         style="font-family:Arial">1</tspan></text>
    <path
       d="M 238.54002,466.09964 A 3.9163287,4.0350051 0 1 1 230.70736,466.09964 A 3.9163287,4.0350051 0 1 1 238.54002,466.09964 z"
       transform="matrix(0.638353,0,0,0.619578,111.163,211.495)"
       id="path2830"
       style="fill:#000000;fill-opacity:1;fill-rule:nonzero;stroke:none;stroke-width:2;stroke-miterlimit:4;stroke-dasharray:none;stroke-opacity:1" />
    <text
       x="274.49982"
       y="482.72638"
       id="text2832"
       xml:space="preserve"
       style="font-size:12.52173901px;font-style:normal;font-variant:normal;font-weight:normal;font-stretch:normal;line-height:100%;writing-mode:lr-tb;text-anchor:middle;fill:#000000;fill-opacity:1;stroke:none;stroke-width:1px;stroke-linecap:butt;stroke-linejoin:miter;stroke-opacity:1;font-family:Arial"><tspan
         x="274.49982"
         y="482.72638"
         id="tspan2834"
         style="font-family:Arial">2</tspan></text>
    <g
       transform="matrix(1,0,0,0.999945,-1.54189e-2,2.79127e-2)"
       id="g1487">
      <path
         d="M 310.31948,461.2301 L 310.31948,539.32229 L 348.40672,539.32229 L 348.40672,461.2301 L 310.31948,461.2301 z"
         id="path14935"
         style="fill:none;fill-opacity:1;fill-rule:nonzero;stroke:#000000;stroke-width:1.91217482;stroke-miterlimit:4;stroke-opacity:1" />
      <path
         d="M 348.38136,461.22853 L 348.38136,539.32227 L 376.85011,555.32227 L 376.85011,465.22853 L 348.38136,461.22853 z"
         id="rect2852"
         style="fill:url(#linearGradient1546);fill-opacity:1;fill-rule:nonzero;stroke:#000000;stroke-width:1.91157269;stroke-miterlimit:4;stroke-opacity:1" />
      <path
         d="M 238.54002,466.09964 A 3.9163287,4.0350051 0 1 1 230.70736,466.09964 A 3.9163287,4.0350051 0 1 1 238.54002,466.09964 z"
         transform="matrix(0.419375,0,0,0.693927,273.493,183.549)"
         id="path7665"
         style="fill:#000000;fill-opacity:1;fill-rule:nonzero;stroke:none;stroke-width:2;stroke-miterlimit:4;stroke-opacity:1" />
      <g
         transform="translate(0,3.74869)"
         id="g1367">
        <path
           d="M 332.959,485.88635 C 334.20872,479.63776 324.83583,479.0129 324.83583,479.0129 C 324.83583,479.0129 338.42651,475.21168 337.33301,488.1775 C 337.10945,490.82833 332.19918,489.68546 332.959,485.88635 z"
           id="path14903"
           style="fill:#f6f6f6;fill-opacity:1;fill-rule:evenodd;stroke:#000000;stroke-width:1px;stroke-linecap:butt;stroke-linejoin:miter;stroke-opacity:1" />
        <path
           d="M 330.2655,484.18165 C 330.02749,484.24436 329.7724,484.48209 329.5155,484.68165 C 328.69629,485.31808 329.47247,485.87588 329.828,486.24415 C 330.40808,486.84501 330.04222,486.95576 331.203,486.7754 C 331.34946,486.25981 331.09693,485.42021 330.85925,484.68165 C 330.71432,484.23127 330.50351,484.11894 330.2655,484.18165 z M 332.54675,487.1504 C 325.88159,487.98354 324.2228,494.01522 319.6405,495.05665 C 315.0582,496.09808 310.8905,495.68165 310.8905,495.68165 L 311.11101,512.11544 C 311.11101,512.11544 315.03509,512.48228 317.32624,512.48228 C 317.32624,512.48228 318.452,529.15759 317.98776,535.24369 C 320.85708,535.24369 319.20247,535.24369 322.10573,535.24369 C 320.56615,529.95513 321.72407,511.08733 322.7655,508.5879 C 323.80693,506.08846 329.13469,495.26999 330.8905,495.4629 C 332.08271,495.59389 332.32285,507.1209 338.36315,503.37175 C 343.2802,500.31979 339.21192,486.31725 332.54675,487.1504 z"
           id="path14002"
           style="fill:url(#linearGradient1548);fill-opacity:1;fill-rule:evenodd;stroke:#000000;stroke-width:1px;stroke-linecap:butt;stroke-linejoin:miter;stroke-opacity:1" />
        <path
           d="M 114.55747,65.226349 A 1.7704335,1.8745767 0 1 1 111.0166,65.226349 A 1.7704335,1.8745767 0 1 1 114.55747,65.226349 z"
           transform="translate(224.025,429.2)"
           id="path14004"
           style="fill:url(#linearGradient1550);fill-opacity:1;fill-rule:nonzero;stroke:#000000;stroke-width:0.5;stroke-miterlimit:4;stroke-opacity:1" />
        <path
           d="M 106.22601,86.888123 A 0.4165726,0.62485892 0 1 1 105.39287,86.888123 A 0.4165726,0.62485892 0 1 1 106.22601,86.888123 z"
           transform="matrix(1.80041,0,0,1.20027,146.666,390.508)"
           id="path14901"
           style="fill:#000000;fill-opacity:1;fill-rule:nonzero;stroke:none;stroke-width:0.5;stroke-miterlimit:4;stroke-opacity:1" />
        <path
           d="M 334.29001,503.82491 C 334.76206,504.3388 335.2848,505.06752 335.2989,505.77165 C 335.14225,506.67713 334.19512,507.21643 334.05792,508.12906 C 333.85908,509.18258 334.66043,510.34776 335.77085,510.47259 C 336.14844,510.47662 336.4077,509.9265 336.09017,509.6854 C 335.78776,509.4472 335.29368,509.5147 335.08,509.15751 C 334.70121,508.62625 334.87075,507.86511 335.32624,507.43052 C 335.83144,506.78274 336.38292,506.05652 336.93308,505.21026 C 337.62534,504.18262 337.84425,503.84219 338.5877,502.96133 C 337.3886,503.61081 336.54174,504.13089 336.22516,504.06162 C 335.76099,504.00302 334.41744,503.83413 334.29001,503.82491 z"
           id="path6721"
           style="fill:#000000;fill-opacity:1;fill-rule:evenodd;stroke:none;stroke-width:1px;stroke-linecap:butt;stroke-linejoin:miter;stroke-opacity:1" />
      </g>
    </g>
    <text
       x="208.86916"
       y="519.77502"
       id="text2543"
       xml:space="preserve"
       style="font-size:40px;font-style:normal;font-weight:normal;fill:#000000;fill-opacity:0.25;stroke:#fff818;stroke-width:1px;stroke-linecap:butt;stroke-linejoin:miter;stroke-opacity:0.94444442;font-family:Bitstream Vera Sans"><tspan
         x="208.86916"
         y="519.77502"
         id="tspan2545"
         style="fill:#000000;fill-opacity:0.25;stroke:#fff818;stroke-opacity:0.94444442">?</tspan></text>
    <text
       x="264.20691"
       y="519.77502"
       id="text4779"
       xml:space="preserve"
       style="font-size:40px;font-style:normal;font-weight:normal;fill:#000000;fill-opacity:0.25;stroke:#fff818;stroke-width:1px;stroke-linecap:butt;stroke-linejoin:miter;stroke-opacity:0.94444442;font-family:Bitstream Vera Sans"><tspan
         x="264.20691"
         y="519.77502"
         id="tspan4781"
         style="fill:#000000;fill-opacity:0.25;stroke:#fff818;stroke-opacity:0.94444442">?</tspan></text>
  </g>
</svg>
